<mxfile host="app.diagrams.net" modified="2023-08-06T14:05:57.735Z" agent="Mozilla/5.0 (X11; Linux x86_64) AppleWebKit/537.36 (KHTML, like Gecko) Chrome/114.0.0.0 Safari/537.36" etag="qGwPcoTs1GpF5gHVWdvc" version="21.6.6">
  <diagram name="Page-1" id="KRV0S2rLu7yuDHwV4FsO">
    <mxGraphModel dx="1245" dy="677" grid="1" gridSize="10" guides="1" tooltips="1" connect="1" arrows="1" fold="1" page="1" pageScale="1" pageWidth="850" pageHeight="1100" math="0" shadow="0">
      <root>
        <mxCell id="0" />
        <mxCell id="1" parent="0" />
        <mxCell id="Miv3Y8_uLDQEiyi_fgAu-1" value="&lt;font style=&quot;font-size: 16px;&quot;&gt;App&lt;/font&gt;" style="rounded=0;whiteSpace=wrap;html=1;" vertex="1" parent="1">
          <mxGeometry x="350" y="130" width="120" height="60" as="geometry" />
        </mxCell>
        <mxCell id="Miv3Y8_uLDQEiyi_fgAu-2" value="&lt;font style=&quot;font-size: 16px;&quot;&gt;Home&lt;/font&gt;" style="rounded=0;whiteSpace=wrap;html=1;" vertex="1" parent="1">
          <mxGeometry x="350" y="230" width="120" height="60" as="geometry" />
        </mxCell>
        <mxCell id="Miv3Y8_uLDQEiyi_fgAu-3" value="&lt;font style=&quot;font-size: 16px;&quot;&gt;PeoplePage&lt;/font&gt;" style="rounded=0;whiteSpace=wrap;html=1;" vertex="1" parent="1">
          <mxGeometry x="230" y="350" width="120" height="60" as="geometry" />
        </mxCell>
        <mxCell id="Miv3Y8_uLDQEiyi_fgAu-4" value="&lt;font style=&quot;font-size: 16px;&quot;&gt;Blank&lt;/font&gt;" style="rounded=0;whiteSpace=wrap;html=1;" vertex="1" parent="1">
          <mxGeometry x="470" y="350" width="120" height="60" as="geometry" />
        </mxCell>
        <mxCell id="Miv3Y8_uLDQEiyi_fgAu-5" value="&lt;font style=&quot;font-size: 16px;&quot;&gt;PeopleList&lt;/font&gt;" style="rounded=0;whiteSpace=wrap;html=1;" vertex="1" parent="1">
          <mxGeometry x="230" y="450" width="120" height="60" as="geometry" />
        </mxCell>
        <mxCell id="Miv3Y8_uLDQEiyi_fgAu-6" value="&lt;font style=&quot;font-size: 16px;&quot;&gt;PersonCard&lt;/font&gt;" style="rounded=0;whiteSpace=wrap;html=1;" vertex="1" parent="1">
          <mxGeometry x="230" y="550" width="120" height="60" as="geometry" />
        </mxCell>
        <mxCell id="Miv3Y8_uLDQEiyi_fgAu-7" value="&lt;font style=&quot;font-size: 16px;&quot;&gt;Detail&lt;/font&gt;" style="rounded=0;whiteSpace=wrap;html=1;" vertex="1" parent="1">
          <mxGeometry x="230" y="650" width="120" height="60" as="geometry" />
        </mxCell>
        <mxCell id="Miv3Y8_uLDQEiyi_fgAu-8" value="" style="endArrow=classic;html=1;rounded=0;exitX=0.5;exitY=1;exitDx=0;exitDy=0;entryX=0.5;entryY=0;entryDx=0;entryDy=0;" edge="1" parent="1" source="Miv3Y8_uLDQEiyi_fgAu-1" target="Miv3Y8_uLDQEiyi_fgAu-2">
          <mxGeometry width="50" height="50" relative="1" as="geometry">
            <mxPoint x="390" y="480" as="sourcePoint" />
            <mxPoint x="440" y="430" as="targetPoint" />
          </mxGeometry>
        </mxCell>
        <mxCell id="Miv3Y8_uLDQEiyi_fgAu-10" value="" style="edgeStyle=elbowEdgeStyle;elbow=horizontal;endArrow=classic;html=1;curved=0;rounded=0;endSize=8;startSize=8;exitX=0.5;exitY=1;exitDx=0;exitDy=0;entryX=0.5;entryY=0;entryDx=0;entryDy=0;" edge="1" parent="1" source="Miv3Y8_uLDQEiyi_fgAu-2" target="Miv3Y8_uLDQEiyi_fgAu-3">
          <mxGeometry width="50" height="50" relative="1" as="geometry">
            <mxPoint x="390" y="480" as="sourcePoint" />
            <mxPoint x="440" y="430" as="targetPoint" />
          </mxGeometry>
        </mxCell>
        <mxCell id="Miv3Y8_uLDQEiyi_fgAu-12" value="" style="edgeStyle=segmentEdgeStyle;endArrow=classic;html=1;curved=0;rounded=0;endSize=8;startSize=8;entryX=0.5;entryY=0;entryDx=0;entryDy=0;" edge="1" parent="1" target="Miv3Y8_uLDQEiyi_fgAu-4">
          <mxGeometry width="50" height="50" relative="1" as="geometry">
            <mxPoint x="410" y="320" as="sourcePoint" />
            <mxPoint x="440" y="430" as="targetPoint" />
          </mxGeometry>
        </mxCell>
        <mxCell id="Miv3Y8_uLDQEiyi_fgAu-13" value="" style="endArrow=classic;html=1;rounded=0;exitX=0.5;exitY=1;exitDx=0;exitDy=0;entryX=0.5;entryY=0;entryDx=0;entryDy=0;" edge="1" parent="1" source="Miv3Y8_uLDQEiyi_fgAu-3" target="Miv3Y8_uLDQEiyi_fgAu-5">
          <mxGeometry width="50" height="50" relative="1" as="geometry">
            <mxPoint x="390" y="480" as="sourcePoint" />
            <mxPoint x="440" y="430" as="targetPoint" />
          </mxGeometry>
        </mxCell>
        <mxCell id="Miv3Y8_uLDQEiyi_fgAu-14" value="" style="endArrow=classic;html=1;rounded=0;exitX=0.5;exitY=1;exitDx=0;exitDy=0;entryX=0.5;entryY=0;entryDx=0;entryDy=0;" edge="1" parent="1" source="Miv3Y8_uLDQEiyi_fgAu-5" target="Miv3Y8_uLDQEiyi_fgAu-6">
          <mxGeometry width="50" height="50" relative="1" as="geometry">
            <mxPoint x="300" y="420" as="sourcePoint" />
            <mxPoint x="300" y="460" as="targetPoint" />
          </mxGeometry>
        </mxCell>
        <mxCell id="Miv3Y8_uLDQEiyi_fgAu-15" value="" style="endArrow=classic;html=1;rounded=0;exitX=0.5;exitY=1;exitDx=0;exitDy=0;entryX=0.5;entryY=0;entryDx=0;entryDy=0;" edge="1" parent="1" source="Miv3Y8_uLDQEiyi_fgAu-6" target="Miv3Y8_uLDQEiyi_fgAu-7">
          <mxGeometry width="50" height="50" relative="1" as="geometry">
            <mxPoint x="300" y="520" as="sourcePoint" />
            <mxPoint x="300" y="560" as="targetPoint" />
          </mxGeometry>
        </mxCell>
        <mxCell id="Miv3Y8_uLDQEiyi_fgAu-16" value="&lt;b&gt;&lt;font style=&quot;font-size: 24px;&quot;&gt;Components&lt;/font&gt;&lt;/b&gt;" style="text;strokeColor=none;align=center;fillColor=none;html=1;verticalAlign=middle;whiteSpace=wrap;rounded=0;" vertex="1" parent="1">
          <mxGeometry x="380" y="50" width="60" height="30" as="geometry" />
        </mxCell>
      </root>
    </mxGraphModel>
  </diagram>
</mxfile>
